<svg xmlns="http://www.w3.org/2000/svg" width="256" height="256" viewBox="0 0 100 100"><rect width="100" height="100" rx="20" fill="#ffffff"></rect><path fill="#1a1a1a" d="M27.24 46.95Q30.30 46.95 32.92 48.44Q35.55 49.93 37.11 52.88Q38.68 55.82 38.68 60.08L38.68 60.08Q38.68 65.19 36.44 68.85Q34.20 72.51 30.62 74.35Q27.03 76.20 23.06 76.20L23.06 76.20Q17.59 76.20 13.40 73.08L13.40 73.08L8.00 75.63L7.86 75.63Q7.58 75.63 7.51 75.35Q7.44 75.06 7.65 74.92L7.65 74.92Q9.92 73.36 10.84 71.97Q11.77 70.59 11.77 67.96L11.77 67.96L11.77 32.89Q11.77 30.33 11.23 29.20Q10.70 28.06 9.42 28.06L9.42 28.06Q8.43 28.06 6.23 28.98L6.23 28.98L6.09 28.98Q5.87 28.98 5.77 28.63Q5.66 28.27 5.87 28.20L5.87 28.20L14.75 23.87L15.10 23.80Q15.25 23.80 15.49 23.98Q15.74 24.16 15.74 24.37L15.74 24.37L15.74 53.12Q18.44 50.28 21.14 48.62Q23.84 46.95 27.24 46.95L27.24 46.95ZM25.26 74.85Q29.37 74.85 31.68 71.66Q33.99 68.46 33.99 62.50L33.99 62.50Q33.99 56.11 31.50 52.70Q29.02 49.29 24.90 49.29L24.90 49.29Q22.49 49.29 20.29 50.60Q18.09 51.92 15.74 54.26L15.74 54.26L15.74 65.90Q15.74 69.03 17.27 71.02Q18.80 73.00 21.00 73.93Q23.20 74.85 25.26 74.85L25.26 74.85Z"></path><path fill="#d12421" d="M93.98 74.42Q94.27 74.42 94.27 74.85Q94.27 75.28 93.98 75.28L93.98 75.28Q92.35 75.28 91.36 75.21L91.36 75.21L87.52 75.13L83.69 75.21Q82.70 75.28 81.06 75.28L81.06 75.28Q80.85 75.28 80.85 74.85Q80.85 74.42 81.06 74.42L81.06 74.42Q82.98 74.42 83.90 74.03Q84.83 73.64 85.18 72.61Q85.54 71.58 85.54 69.53L85.54 69.53L85.54 58.24Q85.54 54.05 84.04 52.02Q82.55 50.00 79.43 50.00L79.43 50.00Q77.30 50.00 75.13 51.17Q72.97 52.34 71.12 54.47L71.12 54.47Q71.19 54.83 71.19 55.61L71.19 55.61L71.19 69.53Q71.19 71.66 71.55 72.65Q71.90 73.64 72.83 74.03Q73.75 74.42 75.67 74.42L75.67 74.42Q75.88 74.42 75.88 74.85Q75.88 75.28 75.67 75.28L75.67 75.28Q74.03 75.28 73.04 75.21L73.04 75.21L69.21 75.13L65.30 75.21Q64.38 75.28 62.74 75.28L62.74 75.28Q62.53 75.28 62.53 74.85Q62.53 74.42 62.74 74.42L62.74 74.42Q64.66 74.42 65.58 74.03Q66.51 73.64 66.83 72.65Q67.15 71.66 67.15 69.53L67.15 69.53L67.15 58.24Q67.15 54.05 65.66 52.02Q64.16 50.00 61.11 50.00L61.11 50.00Q58.98 50.00 56.85 51.14Q54.72 52.27 52.95 54.33L52.95 54.33L52.95 69.53Q52.95 71.66 53.27 72.65Q53.59 73.64 54.51 74.03Q55.43 74.42 57.35 74.42L57.35 74.42Q57.56 74.42 57.56 74.85Q57.56 75.28 57.35 75.28L57.35 75.28Q55.72 75.28 54.79 75.21L54.79 75.21L50.96 75.13L47.05 75.21Q46.13 75.28 44.50 75.28L44.50 75.28Q44.28 75.28 44.28 74.85Q44.28 74.42 44.50 74.42L44.50 74.42Q46.41 74.42 47.34 74.03Q48.26 73.64 48.58 72.65Q48.90 71.66 48.90 69.53L48.90 69.53L48.90 55.47Q48.90 53.05 48.33 51.99Q47.76 50.92 46.41 50.92L46.41 50.92Q45.28 50.92 42.58 51.99L42.58 51.99L42.44 51.99Q42.15 51.99 42.05 51.67Q41.94 51.35 42.23 51.21L42.23 51.21L50.46 47.30L50.89 47.23Q51.53 47.23 52.24 48.86Q52.95 50.50 52.95 53.05L52.95 53.05L52.95 53.12Q55.50 50.00 58.06 48.58Q60.61 47.16 63.38 47.16L63.38 47.16Q66.58 47.16 68.57 48.72Q70.55 50.28 71.05 53.41L71.05 53.41Q73.68 50.21 76.31 48.69Q78.93 47.16 81.77 47.16L81.77 47.16Q85.54 47.16 87.56 49.33Q89.58 51.49 89.58 55.75L89.58 55.75L89.58 69.53Q89.58 71.66 89.90 72.65Q90.22 73.64 91.14 74.03Q92.07 74.42 93.98 74.42L93.98 74.42Z"></path></svg>